<svg width="366" height="366" viewBox="0 0 366 366" fill="none" xmlns="http://www.w3.org/2000/svg">
<g clip-path="url(#clip0_1_6)">
<rect width="366" height="366" fill="white"/>
<rect x="5" y="4" width="356" height="356" fill="white" stroke="black" stroke-width="10"/>
<path d="M210.141 250.188C218.344 250.188 224.724 249.048 229.281 246.77C236.443 243.189 240.023 236.743 240.023 227.434C240.023 218.059 236.215 211.743 228.598 208.488C224.301 206.665 217.921 205.754 209.457 205.754H174.789V250.188H210.141ZM216.684 316.398C228.598 316.398 237.094 312.948 242.172 306.047C245.362 301.685 246.957 296.411 246.957 290.227C246.957 279.81 242.302 272.714 232.992 268.938C228.044 266.919 221.501 265.91 213.363 265.91H174.789V316.398H216.684ZM155.746 189.543H217.367C234.164 189.543 246.111 194.556 253.207 204.582C257.374 210.507 259.457 217.342 259.457 225.09C259.457 234.139 256.885 241.561 251.742 247.355C249.073 250.415 245.232 253.215 240.219 255.754C247.576 258.553 253.077 261.711 256.723 265.227C263.168 271.477 266.391 280.103 266.391 291.105C266.391 300.35 263.493 308.716 257.699 316.203C249.04 327.401 235.271 333 216.391 333H155.746V189.543ZM287.777 228.41H304.477V246.477C305.844 242.961 309.197 238.697 314.535 233.684C319.874 228.605 326.026 226.066 332.992 226.066C333.318 226.066 333.871 226.099 334.652 226.164C335.434 226.229 336.768 226.359 338.656 226.555V245.109C337.615 244.914 336.638 244.784 335.727 244.719C334.88 244.654 333.936 244.621 332.895 244.621C324.04 244.621 317.237 247.486 312.484 253.215C307.732 258.879 305.355 265.422 305.355 272.844V333H287.777V228.41Z" fill="black"/>
<path d="M76.7969 138.229C83.0436 138.229 88.1771 137.579 92.1973 136.28C99.3717 133.868 105.247 129.229 109.824 122.364C113.473 116.86 116.102 109.809 117.71 101.212C118.638 96.0785 119.102 91.3161 119.102 86.9248C119.102 70.04 115.731 56.9281 108.989 47.5889C102.31 38.2497 91.5169 33.5801 76.6113 33.5801H43.8623V138.229H76.7969ZM25.3076 17.7158H80.5078C99.248 17.7158 113.783 24.3646 124.111 37.6621C133.327 49.6608 137.935 65.0303 137.935 83.7705C137.935 98.2432 135.213 111.324 129.771 123.014C120.184 143.671 103.701 154 80.3223 154H25.3076V17.7158ZM169.478 122.828C169.972 128.395 171.364 132.662 173.652 135.631C177.858 141.012 185.156 143.702 195.547 143.702C201.732 143.702 207.174 142.372 211.875 139.713C216.576 136.992 218.926 132.817 218.926 127.188C218.926 122.921 217.039 119.674 213.267 117.447C210.854 116.087 206.092 114.509 198.979 112.716L185.713 109.376C177.24 107.273 170.993 104.923 166.973 102.325C159.798 97.8102 156.211 91.5635 156.211 83.585C156.211 74.1839 159.582 66.5765 166.323 60.7627C173.127 54.9489 182.249 52.042 193.691 52.042C208.659 52.042 219.451 56.4333 226.069 65.2158C230.213 70.7822 232.223 76.7816 232.1 83.2139H216.328C216.019 79.4411 214.689 76.0085 212.339 72.916C208.504 68.5247 201.855 66.3291 192.393 66.3291C186.084 66.3291 181.291 67.5352 178.013 69.9473C174.797 72.3594 173.188 75.5446 173.188 79.5029C173.188 83.8324 175.322 87.2959 179.59 89.8936C182.064 91.4398 185.713 92.8005 190.537 93.9756L201.577 96.666C213.576 99.5729 221.616 102.387 225.698 105.108C232.192 109.376 235.439 116.087 235.439 125.24C235.439 134.085 232.069 141.723 225.327 148.155C218.647 154.588 208.442 157.804 194.712 157.804C179.93 157.804 169.447 154.464 163.262 147.784C157.139 141.043 153.861 132.724 153.428 122.828H169.478Z" fill="black"/>
</g>
<defs>
<clipPath id="clip0_1_6">
<rect width="366" height="366" fill="white"/>
</clipPath>
</defs>
</svg>
